<svg xmlns="http://www.w3.org/2000/svg"
     viewBox="0 0 400 200"
     width="400" height="200">

  <rect x="0" y="0" width="400" height="200" fill="white"/>

  <ellipse id="wing-base" cx="60" cy="110" rx="20" ry="40"
           fill="#dddddd" stroke="#444444" stroke-width="1"/>

  <g id="primaries">
    <polygon id="P1" points="80,110 150,90 145,105 80,120"
             fill="#cccccc" stroke="#333333" stroke-width="1"/>
    <polygon id="P2" points="82,115 155,95 150,110 82,125"
             fill="#cccccc" stroke="#333333" stroke-width="1"/>
    <polygon id="P3" points="84,120 160,100 155,115 84,130"
             fill="#cccccc" stroke="#333333" stroke-width="1"/>
    <polygon id="P4" points="86,125 165,105 160,120 86,135"
             fill="#cccccc" stroke="#333333" stroke-width="1"/>
    <polygon id="P5" points="88,130 170,110 165,125 88,140"
             fill="#cccccc" stroke="#333333" stroke-width="1"/>
    <polygon id="P6" points="90,135 175,115 170,130 90,145"
             fill="#cccccc" stroke="#333333" stroke-width="1"/>
    <polygon id="P7" points="92,140 180,120 175,135 92,150"
             fill="#cccccc" stroke="#333333" stroke-width="1"/>
    <polygon id="P8" points="94,145 185,125 180,140 94,155"
             fill="#cccccc" stroke="#333333" stroke-width="1"/>
    <polygon id="P9" points="96,150 190,130 185,145 96,160"
             fill="#cccccc" stroke="#333333" stroke-width="1"/>
    <polygon id="P10" points="98,155 195,135 190,150 98,165"
             fill="#cccccc" stroke="#333333" stroke-width="1"/>
  </g>

  <g id="secondaries">
    <polygon id="S1" points="70,95 130,85 128,95 70,105"
             fill="#bbbbbb" stroke="#333333" stroke-width="1"/>
    <polygon id="S2" points="72,100 135,90 133,100 72,110"
             fill="#bbbbbb" stroke="#333333" stroke-width="1"/>
    <polygon id="S3" points="74,105 140,95 138,105 74,115"
             fill="#bbbbbb" stroke="#333333" stroke-width="1"/>
    <polygon id="S4" points="76,110 145,100 143,110 76,120"
             fill="#bbbbbb" stroke="#333333" stroke-width="1"/>
    <polygon id="S5" points="78,115 150,105 148,115 78,125"
             fill="#bbbbbb" stroke="#333333" stroke-width="1"/>
    <polygon id="S6" points="80,120 155,110 153,120 80,130"
             fill="#bbbbbb" stroke="#333333" stroke-width="1"/>
  </g>

  <g id="tertials">
    <polygon id="Tt1" points="68,100 120,92 118,102 68,110"
             fill="#b0b0b0" stroke="#333333" stroke-width="1"/>
    <polygon id="Tt2" points="66,105 115,97 113,107 66,115"
             fill="#b0b0b0" stroke="#333333" stroke-width="1"/>
    <polygon id="Tt3" points="64,110 110,102 108,112 64,120"
             fill="#b0b0b0" stroke="#333333" stroke-width="1"/>
  </g>

  <g id="alula">
    <polygon id="AL1" points="70,80 90,75 88,85 70,88"
             fill="#aaaaaa" stroke="#333333" stroke-width="1"/>
    <polygon id="AL2" points="72,85 92,80 90,90 72,93"
             fill="#aaaaaa" stroke="#333333" stroke-width="1"/>
    <polygon id="AL3" points="74,90 94,85 92,95 74,98"
             fill="#aaaaaa" stroke="#333333" stroke-width="1"/>
  </g>

  <g id="greater-coverts">
    <polygon id="GC1" points="70,120 110,115 108,120 70,125"
             fill="#d0d0d0" stroke="#333333" stroke-width="1"/>
    <polygon id="GC2" points="72,124 115,119 113,124 72,129"
             fill="#d0d0d0" stroke="#333333" stroke-width="1"/>
    <polygon id="GC3" points="74,128 120,123 118,128 74,133"
             fill="#d0d0d0" stroke="#333333" stroke-width="1"/>
    <polygon id="GC4" points="76,132 125,127 123,132 76,137"
             fill="#d0d0d0" stroke="#333333" stroke-width="1"/>
    <polygon id="GC5" points="78,136 130,131 128,136 78,141"
             fill="#d0d0d0" stroke="#333333" stroke-width="1"/>
  </g>

  <g id="median-coverts">
    <polygon id="MC1" points="68,115 108,110 106,114 68,120"
             fill="#e0e0e0" stroke="#333333" stroke-width="1"/>
    <polygon id="MC2" points="70,119 113,114 111,118 70,124"
             fill="#e0e0e0" stroke="#333333" stroke-width="1"/>
    <polygon id="MC3" points="72,123 118,118 116,122 72,128"
             fill="#e0e0e0" stroke="#333333" stroke-width="1"/>
  </g>

  <g id="lesser-coverts">
    <polygon id="LC1" points="66,110 104,105 102,109 66,115"
             fill="#eeeeee" stroke="#333333" stroke-width="1"/>
    <polygon id="LC2" points="68,114 109,109 107,113 68,119"
             fill="#eeeeee" stroke="#333333" stroke-width="1"/>
  </g>

  <g id="primary-coverts">
    <polygon id="CC1" points="85,125 140,115 138,120 85,130"
             fill="#dddddd" stroke="#333333" stroke-width="1"/>
    <polygon id="CC2" points="87,130 145,120 143,125 87,135"
             fill="#dddddd" stroke="#333333" stroke-width="1"/>
    <polygon id="CC3" points="89,135 150,125 148,130 89,140"
             fill="#dddddd" stroke="#333333" stroke-width="1"/>
  </g>

</svg>
